<svg width="24" height="24" viewBox="0 0 24 24" fill="none" xmlns="http://www.w3.org/2000/svg">
<path fill-rule="evenodd" clip-rule="evenodd" d="M16.29 1.92C16.29 1.50578 16.6258 1.17 17.04 1.17H22.08C22.4942 1.17 22.83 1.50578 22.83 1.92V6.96C22.83 7.37421 22.4942 7.71 22.08 7.71C21.6658 7.71 21.33 7.37421 21.33 6.96V3.73066L16.3103 8.75033C16.0174 9.04322 15.5426 9.04322 15.2497 8.75033C14.9568 8.45743 14.9568 7.98256 15.2497 7.68967L20.2693 2.67H17.04C16.6258 2.67 16.29 2.33421 16.29 1.92Z" fill="black"/>
<path fill-rule="evenodd" clip-rule="evenodd" d="M8.75033 15.2497C9.04322 15.5426 9.04322 16.0174 8.75033 16.3103L3.73066 21.33H6.96C7.37421 21.33 7.71 21.6658 7.71 22.08C7.71 22.4942 7.37421 22.83 6.96 22.83H1.92C1.50578 22.83 1.17 22.4942 1.17 22.08V17.04C1.17 16.6258 1.50578 16.29 1.92 16.29C2.33421 16.29 2.67 16.6258 2.67 17.04V20.2693L7.68967 15.2497C7.98256 14.9568 8.45743 14.9568 8.75033 15.2497Z" fill="black"/>
</svg>
