<svg width="24" height="24" viewBox="0 0 24 24" fill="none" xmlns="http://www.w3.org/2000/svg">
<path fill-rule="evenodd" clip-rule="evenodd" d="M2.43 15.78C2.43 15.3658 2.76578 15.03 3.18 15.03H8.22C8.63421 15.03 8.97 15.3658 8.97 15.78V20.82C8.97 21.2342 8.63421 21.57 8.22 21.57C7.80578 21.57 7.47 21.2342 7.47 20.82V17.5907L2.45033 22.6103C2.15744 22.9032 1.68256 22.9032 1.38967 22.6103C1.09677 22.3174 1.09677 21.8426 1.38967 21.5497L6.40934 16.53H3.18C2.76578 16.53 2.43 16.1942 2.43 15.78Z" fill="black"/>
<path fill-rule="evenodd" clip-rule="evenodd" d="M22.6103 1.38967C22.9032 1.68256 22.9032 2.15744 22.6103 2.45033L17.5907 7.47H20.82C21.2342 7.47 21.57 7.80578 21.57 8.22C21.57 8.63421 21.2342 8.97 20.82 8.97H15.78C15.3658 8.97 15.03 8.63421 15.03 8.22V3.18C15.03 2.76578 15.3658 2.43 15.78 2.43C16.1942 2.43 16.53 2.76578 16.53 3.18V6.40934L21.5497 1.38967C21.8426 1.09677 22.3174 1.09677 22.6103 1.38967Z" fill="black"/>
</svg>
